<svg xmlns="http://www.w3.org/2000/svg" viewBox="0 0 1280 620" font-family="-apple-system,BlinkMacSystemFont,Segoe UI,Roboto,Helvetica,Arial,sans-serif" role="img"><title>Deep Delve architecture after quest 4</title><defs><marker id="ar" markerWidth="10" markerHeight="10" refX="7" refY="4.5" orient="auto"><path d="M0,0 L9,4.5 L0,9 z" fill="#2c4636"/></marker><marker id="arG" markerWidth="10" markerHeight="10" refX="7" refY="4.5" orient="auto"><path d="M0,0 L9,4.5 L0,9 z" fill="#e8b23a"/></marker><marker id="arF" markerWidth="10" markerHeight="10" refX="7" refY="4.5" orient="auto"><path d="M0,0 L9,4.5 L0,9 z" fill="#3a5a45"/></marker></defs><rect x="0" y="0" width="1280" height="620" fill="#0c1410"/><line x1="385.0" y1="91.0" x2="641.0" y2="91.0" stroke="#2c4636" stroke-width="1.4" marker-end="url(#ar)"/><line x1="385.0" y1="91.0" x2="385.0" y2="203.0" stroke="#2c4636" stroke-width="1.4" marker-end="url(#ar)"/><line x1="129.0" y1="333.0" x2="385.0" y2="203.0" stroke="#2c4636" stroke-width="1.4" stroke-dasharray="6 4" marker-end="url(#ar)"/><line x1="385.0" y1="91.0" x2="640.0" y2="336.0" stroke="#e8b23a" stroke-width="2.4" marker-end="url(#arG)"/><line x1="385.0" y1="203.0" x2="640.0" y2="336.0" stroke="#e8b23a" stroke-width="2.4" marker-end="url(#arG)"/><line x1="897.0" y1="203.0" x2="640.0" y2="336.0" stroke="#e8b23a" stroke-width="2.4" marker-end="url(#arG)"/><line x1="897.0" y1="91.0" x2="640.0" y2="336.0" stroke="#e8b23a" stroke-width="2.4" stroke-dasharray="1.5 4" stroke-linecap="round" marker-end="url(#arG)"/><line x1="1151.0" y1="333.0" x2="640.0" y2="336.0" stroke="#e8b23a" stroke-width="2.4" stroke-dasharray="1.5 4" stroke-linecap="round" marker-end="url(#arG)"/><rect x="24" y="52" width="210" height="78" rx="10" fill="#12201a" stroke="#25402f" stroke-width="1.1"/><text x="129.0" y="78" text-anchor="middle" fill="#9dc3ad" font-size="13.2" font-weight="700">ADeepDelveGameMode</text><text x="129.0" y="98" text-anchor="middle" fill="#6f8f7d" font-size="10.6" font-weight="400">: AGameModeBase</text><text x="129.0" y="115" text-anchor="middle" fill="#6f8f7d" font-size="10.6" font-weight="400">↳ BP_DeepDelveGameMode</text><rect x="280" y="52" width="210" height="78" rx="10" fill="#20301a" stroke="#e8b23a" stroke-width="2.6"/><text x="385.0" y="78" text-anchor="middle" fill="#ffdf8a" font-size="13.2" font-weight="700">ADeepDelvePlayerController</text><text x="385.0" y="98" text-anchor="middle" fill="#e9f5ee" font-size="10.6" font-weight="400">: APlayerController</text><text x="385.0" y="115" text-anchor="middle" fill="#e9f5ee" font-size="10.6" font-weight="400">↳ BP_MineController</text><rect x="432" y="41" width="52" height="18" rx="9" fill="#e8b23a"/><text x="458" y="54" text-anchor="middle" fill="#0c1410" font-size="9.6" font-weight="700">NEW</text><rect x="536" y="52" width="210" height="78" rx="10" fill="#12201a" stroke="#25402f" stroke-width="1.1"/><text x="641.0" y="78" text-anchor="middle" fill="#9dc3ad" font-size="13.2" font-weight="700">ADeepDelvePlayerState</text><text x="641.0" y="98" text-anchor="middle" fill="#6f8f7d" font-size="10.6" font-weight="400">: APlayerState</text><text x="641.0" y="115" text-anchor="middle" fill="#6f8f7d" font-size="10.6" font-weight="400">↳ BP_DeepDelvePlayerState</text><rect x="792" y="52" width="210" height="78" rx="10" fill="#20301a" stroke="#e8b23a" stroke-width="2.6"/><text x="897.0" y="78" text-anchor="middle" fill="#ffdf8a" font-size="13.2" font-weight="700">UHUDWidget</text><text x="897.0" y="98" text-anchor="middle" fill="#e9f5ee" font-size="10.6" font-weight="400">: UUserWidget</text><text x="897.0" y="115" text-anchor="middle" fill="#e9f5ee" font-size="10.6" font-weight="400">↳ WBP_HUD</text><rect x="944" y="41" width="52" height="18" rx="9" fill="#e8b23a"/><text x="970" y="54" text-anchor="middle" fill="#0c1410" font-size="9.6" font-weight="700">NEW</text><rect x="280" y="164" width="210" height="78" rx="10" fill="#20301a" stroke="#e8b23a" stroke-width="2.6"/><text x="385.0" y="190" text-anchor="middle" fill="#ffdf8a" font-size="13.2" font-weight="700">AOreVein</text><text x="385.0" y="210" text-anchor="middle" fill="#e9f5ee" font-size="10.6" font-weight="400">: AActor, IMineable</text><text x="385.0" y="227" text-anchor="middle" fill="#e9f5ee" font-size="10.6" font-weight="400">↳ BP_OreVein</text><rect x="432" y="153" width="52" height="18" rx="9" fill="#e8b23a"/><text x="458" y="166" text-anchor="middle" fill="#0c1410" font-size="9.6" font-weight="700">NEW</text><rect x="792" y="164" width="210" height="78" rx="10" fill="#20301a" stroke="#e8b23a" stroke-width="2.6"/><text x="897.0" y="190" text-anchor="middle" fill="#ffdf8a" font-size="13.2" font-weight="700">ACoin · AMineral</text><text x="897.0" y="210" text-anchor="middle" fill="#e9f5ee" font-size="10.6" font-weight="400">: AActor</text><text x="897.0" y="227" text-anchor="middle" fill="#e9f5ee" font-size="10.6" font-weight="400">↳ BP_Coin / BP_Mineral</text><rect x="944" y="153" width="52" height="18" rx="9" fill="#e8b23a"/><text x="970" y="166" text-anchor="middle" fill="#0c1410" font-size="9.6" font-weight="700">NEW</text><rect x="24" y="294" width="210" height="78" rx="10" fill="#12201a" stroke="#25402f" stroke-width="1.1"/><text x="129.0" y="320" text-anchor="middle" fill="#9dc3ad" font-size="13.2" font-weight="700">IMineable</text><text x="129.0" y="340" text-anchor="middle" fill="#6f8f7d" font-size="10.6" font-weight="400">UInterface · Dependency Inversion</text><rect x="1046" y="294" width="210" height="78" rx="10" fill="#20301a" stroke="#e8b23a" stroke-width="2.6"/><text x="1151.0" y="320" text-anchor="middle" fill="#ffdf8a" font-size="13.2" font-weight="700">UMineStatics</text><text x="1151.0" y="340" text-anchor="middle" fill="#e9f5ee" font-size="10.6" font-weight="400">: UBlueprintFunctionLibrary</text><rect x="1198" y="283" width="52" height="18" rx="9" fill="#e8b23a"/><text x="1224" y="296" text-anchor="middle" fill="#0c1410" font-size="9.6" font-weight="700">NEW</text><rect x="420" y="284" width="440" height="104" rx="12" fill="#20301a" stroke="#e8b23a" stroke-width="2.8"/><text x="640.0" y="321" text-anchor="middle" fill="#ffdf8a" font-size="18" font-weight="700">UMineEconomySubsystem</text><text x="640.0" y="347" text-anchor="middle" fill="#e9f5ee" font-size="12" font-weight="400">: UGameInstanceSubsystem — single source of truth</text><text x="640.0" y="369" text-anchor="middle" fill="#9dc3ad" font-size="11.5" font-weight="400">state · API · event bus (Observer)</text><rect x="802" y="273" width="52" height="18" rx="9" fill="#e8b23a"/><text x="828" y="286" text-anchor="middle" fill="#0c1410" font-size="9.6" font-weight="700">NEW</text><text x="24" y="28" text-anchor="start" fill="#e9f5ee" font-size="16.5" font-weight="700">Architecture after Quest 4 — Coins &amp; Economy Subsystem</text><text x="24" y="47" text-anchor="start" fill="#ffdf8a" font-size="11.5" font-weight="400">New / extended this quest: PlayerController, HUD widget, AOreVein, ACoin, UMineStatics, Economy Subsystem</text><g><rect x="908" y="16" width="15" height="15" rx="3" fill="#20301a" stroke="#e8b23a" stroke-width="2.4"/><text x="932" y="29" text-anchor="start" fill="#ffdf8a" font-size="11.5" font-weight="400">added / extended this quest</text><rect x="1136" y="16" width="15" height="15" rx="3" fill="#12201a" stroke="#25402f" stroke-width="1.2"/><text x="1160" y="29" text-anchor="start" fill="#9dc3ad" font-size="11.5" font-weight="400">already built</text></g></svg>